<svg xmlns="http://www.w3.org/2000/svg" viewBox="0 0 32 32" width="32" height="32">
  <path d="M27 24a3 3 0 1 0 3 3 3 3 0 0 0-3-3zm0 4a1 1 0 1 1 1-1 1 1 0 0 1-1 1zm0-15a3 3 0 1 0 3 3 3 3 0 0 0-3-3zm0 4a1 1 0 1 1 1-1 1 1 0 0 1-1 1zm0-15a3 3 0 1 0 3 3 3 3 0 0 0-3-3zm0 4a1 1 0 1 1 1-1 1 1 0 0 1-1 1z"/>
  <path d="M18 6h2V4h-2a4 4 0 0 0-3 1.4A4 4 0 0 0 12 4h-1a9 9 0 0 0-9 9v6a9 9 0 0 0 9 9h1a4 4 0 0 0 3-1.4A4 4 0 0 0 18 28h2v-2h-2a2 2 0 0 1-2-2V8a2 2 0 0 1 2-2zm-6 20h-1A7 7 0 0 1 4 20h2v-2H4v-4h3a3 3 0 0 0 3-3V9H8v2a1 1 0 0 1-1 1H4A7 7 0 0 1 11 6h1a2 2 0 0 1 2 2v4h-2v2h2v4h-2a3 3 0 0 0-3 3v2h2v-2a1 1 0 0 1 1-1h2v4a2 2 0 0 1-2 2z"/>
</svg>