<svg xmlns="http://www.w3.org/2000/svg" id="Layer_1" viewBox="0 0 195 175" class="icon" width="32px" height="32px" data-name="Layer 1"><defs id="defs1"><style id="style1">.cls-1{fill:#0080d4}</style></defs><path id="path1" d="m189.415 56.477-82.74-53.66a19.75 19.75 0 0 0-20.33 0l-80.35 52.09a12 12 0 0 0-.25 20.63l80.54 54.94a19.39 19.39 0 0 0 20.38.25l82.75-53.65a11.87 11.87 0 0 0 0-20.59zm-91 61.45a4.29 4.29 0 0 1-3.49-.05l-77-52.49 76.71-49.78a4.76 4.76 0 0 1 3.74 0l78.91 51.15z" class="cls-1"></path><path id="path2" d="m86.345 44.297-43.56 28.24 13.62 9.33 38.23-24.78a4.76 4.76 0 0 1 3.74 0l39.37 25.52 14-9.06-45.07-29.25a19.78 19.78 0 0 0-20.33 0z" class="cls-1"></path><path id="path3" d="m189.415 97.937-8.62-5.59-14 9.06 10.52 6.83-78.91 51.15a4.37 4.37 0 0 1-3.49 0l-77-52.5 10-6.47-13.67-9.37-8.25 5.34a12 12 0 0 0-.25 20.63l80.54 54.92a19.36 19.36 0 0 0 20.38.24l82.74-53.65a11.87 11.87 0 0 0 0-20.59z" class="cls-1"></path></svg>