<svg width="24" height="24" viewBox="0 0 24 24" fill="none" xmlns="http://www.w3.org/2000/svg">
<g clip-path="url(#clip0_105_405)">
<path d="M12 19.53C15.866 19.53 19 16.396 19 12.53C19 8.66401 15.866 5.53 12 5.53C8.13401 5.53 5 8.66401 5 12.53C5 16.396 8.13401 19.53 12 19.53Z" stroke="#ef9234" stroke-width="2" stroke-linecap="round" stroke-linejoin="round"/>
<path d="M2 12.53C2 10.5522 2.58649 8.61879 3.6853 6.9743C4.78412 5.32981 6.3459 4.04808 8.17317 3.29121C10.0004 2.53433 12.0111 2.3363 13.9509 2.72215C15.8907 3.108 17.6725 4.06041 19.0711 5.45894C20.4696 6.85746 21.422 8.63929 21.8079 10.5791C22.1937 12.5189 21.9957 14.5296 21.2388 16.3568C20.4819 18.1841 19.2002 19.7459 17.5557 20.8447C15.9112 21.9435 13.9778 22.53 12 22.53" stroke="#ef9234" stroke-width="2" stroke-linecap="round" stroke-linejoin="round"/>
<path d="M22.4187 2.11789L19.5903 4.94632" stroke="#ef9234" stroke-width="2" stroke-linecap="round" stroke-linejoin="round"/>
<path d="M6.41431 18.1201L3.58588 20.9485" stroke="#ef9234" stroke-width="2" stroke-linecap="round" stroke-linejoin="round"/>
</g>
<defs>
<clipPath id="clip0_105_405">
<rect width="24" height="24" fill="white"/>
</clipPath>
</defs>
</svg>
