<svg xmlns="http://www.w3.org/2000/svg" fill="#ef9234"  xmlns:xlink="http://www.w3.org/1999/xlink" version="1.1" id="Capa_1" x="0px" y="0px" width="235.506px" height="235.506px" viewBox="0 0 235.506 235.506" style="enable-background:new 0 0 235.506 235.506;" xml:space="preserve"><g><path d="M234.099,29.368c-3.025-4.861-10.303-7.123-22.915-7.123c-13.492,0-28.304,2.661-28.625,2.733 c-20.453,2.098-27.254,26.675-32.736,46.436c-1.924,6.969-3.755,13.549-5.827,17.655c-3.157,6.242-5.064,6.915-5.057,6.955 c-0.598-0.205-5.759-3.005-10.527-37.884l-0.169-1.28c-2.934-20.845-16.198-22.62-33.163,0.713 c-4.429,6.083-6.705,6.398-7.127,6.398c-1.861,0-4.426-5.37-5.661-7.943c-1.176-2.457-2.19-4.597-3.53-6.015 c-5.482-5.811-11.175-8.754-16.905-8.754c-39.417,0-59.655,148.039-61.821,164.917c-0.15,1.135,0.194,2.284,0.95,3.138 c0.739,0.866,1.821,1.379,2.968,1.411l19.376,0.421c0.024,0,0.054,0,0.084,0c0.054-0.017,0.15,0,0.196,0 c2.246,0,4.052-1.808,4.052-4.056c0-0.445-0.068-0.866-0.203-1.274c0.046-6.36,1.222-37.104,19.266-55.688 c1.763-1.799,3.963-2.974,5.955-4.44c-1.881,17.726-5.22,55.968,0.082,65.121c0.728,1.258,2.062,2.04,3.499,2.04h15.567 c1.1,0,2.15-0.461,2.914-1.242c0.763-0.798,1.162-1.855,1.124-2.962c-1.14-30.957,0.593-66.451,5.282-72.599 c8.41-0.477,17.428,0.061,27.609,2.577c13.049,3.186,29.286,7.173,23.881,70.037c-0.104,1.118,0.276,2.225,1.038,3.066 c0.757,0.837,1.807,1.318,2.941,1.334l17.264,0.2c0.016,0,0.032,0,0.048,0c0.076-0.016,0.152-0.016,0.192,0 c2.244,0,4.056-1.807,4.056-4.063c0-0.505-0.108-1.01-0.293-1.471c-0.488-8.279-3.214-55.122-3.065-65.196 c0.024-1.764,0.421-5.839,3.562-5.839c1.066,0,2.156,0.488,2.869,1.254c0.657,0.722,0.95,1.644,0.85,2.701 c-0.797,9.001-0.344,23.026,0.093,36.584c0.36,11.605,0.713,22.537,0.328,30.096c-0.052,1.134,0.353,2.224,1.15,3.037 c0.798,0.814,1.888,1.379,2.997,1.211l16.01-0.429c1.194-0.032,2.316-0.598,3.074-1.535c0.737-0.934,1.025-2.16,0.773-3.342 c-7.422-34.897,4.809-119.518,7.213-135.325c18.522-5.504,34.829-19.618,40.251-30.689 C236.491,35.113,235.44,31.502,234.099,29.368z M67.652,204.745h-8.636c-2.435-9.782-0.23-42.021,2.384-64.399 c3.464-1.526,6.995-2.945,10.95-3.734C66.965,152.897,67.165,188.106,67.652,204.745z M226.709,36.682 c-4.769,9.752-21.02,22.979-37.55,27.123c-1.571,0.385-2.757,1.673-3.021,3.274c-0.642,3.949-14.88,93.798-8.384,136.092 l-7.017,0.185c0.132-7.373-0.16-16.667-0.481-26.4c-0.425-13.333-0.845-27.127-0.116-35.618c0.301-3.326-0.757-6.473-2.953-8.877 c-6.107-6.672-20.27-5.186-20.482,9.935c-0.132,9.565,2.124,49.323,2.914,62.696l-8.604-0.092 c4.04-54.754-8.127-68.815-30.35-74.258c-11.503-2.806-21.752-3.311-31.31-2.604c-0.046-0.017-0.084,0-0.148,0 c-15.411,1.134-28.519,6.255-38.347,16.39c-18.338,18.92-21.103,47.621-21.47,58.433l-10.772-0.232 c8.33-61.161,29.447-153.395,53.216-153.395c3.423,0,7.138,2.086,11.021,6.218c0.471,0.495,1.429,2.486,2.12,3.939 c2.529,5.306,5.991,12.543,12.956,12.543c4.488,0,8.832-3.098,13.657-9.726c9.563-13.154,14.21-13.533,14.711-13.533 c1.304,0,3.025,2.843,3.911,9.191l0.172,1.25c4.366,31.873,9.691,44.863,18.448,44.863h0.008c5.903,0,9.874-6.49,12.343-11.373 c2.453-4.831,4.376-11.784,6.416-19.153c4.817-17.373,10.796-39.012,26.068-40.587c0.152-0.034,14.731-2.649,27.491-2.649 c13.593,0,15.845,2.979,16.054,3.324C227.707,34.382,227.126,35.856,226.709,36.682z"/></g></svg>