<svg xmlns="http://www.w3.org/2000/svg" fill="#ef9234"  xmlns:svg="http://www.w3.org/2000/svg" width="32" height="32"><defs><style>.cls-1 { fill: none; }</style></defs><g class="layer"><title>Layer 1</title><path d="m24,30l-20,0a2.0021,2.0021 0 0 1 -2,-2l0,-6a2.0021,2.0021 0 0 1 2,-2l20,0a2.0021,2.0021 0 0 1 2,2l0,6a2.0021,2.0021 0 0 1 -2,2zm-20,-8l-0.0015,0l0.0015,6l20,0l0,-6l-20,0z" id="svg_1"/><polygon id="svg_2" points="32.009655237197876,7.0889304876327515 32.009655237197876,5.094889521598816 26.932628870010376,5.094889521598816 26.932628870010376,0.017862439155578613 24.938587427139282,0.017862558364868164 24.938587427139282,5.094889521598816 19.861561059951782,5.094889521598816 19.861561059951782,7.0889304876327515 24.938587427139282,7.0889304876327515 24.938587427139282,12.165956854820251 26.932628870010376,12.165956854820251 26.932628870010376,7.0889304876327515 32.009655237197876,7.0889304876327515 " transform="rotate(-45 25.9356 6.09191)"/><path d="m4,14l0,-6l14,0l0,-2l-14,0a2.0023,2.0023 0 0 0 -2,2l0,6a2.0023,2.0023 0 0 0 2,2l22,0l0,-2l-22,0z" id="svg_3" transform="matrix(1 0 0 1 0 0)"/></g></svg>