<?xml version="1.0" standalone="no"?>
<!DOCTYPE svg PUBLIC "-//W3C//DTD SVG 20010904//EN"
 "http://www.w3.org/TR/2001/REC-SVG-20010904/DTD/svg10.dtd">
<svg version="1.0" xmlns="http://www.w3.org/2000/svg"
 width="600.000000pt" height="600.000000pt" viewBox="0 0 600.000000 600.000000"
 preserveAspectRatio="xMidYMid meet">

<g transform="translate(0.000000,600.000000) scale(0.100000,-0.100000)"
fill="hsl(181, 70%, 48%)" stroke="none">
<path d="M1910 3035 l0 -588 288 6 c158 3 307 11 331 17 169 42 282 164 331
356 25 95 27 294 5 399 -29 139 -115 269 -216 328 -85 50 -141 58 -451 64
l-288 6 0 -588z m560 365 c127 -45 178 -170 167 -414 -8 -183 -45 -268 -136
-309 -39 -18 -70 -22 -203 -25 l-158 -4 0 379 c0 209 3 383 8 387 11 12 282 0
322 -14z"/>
<path d="M3417 3613 c-10 -17 -447 -1144 -447 -1153 0 -7 44 -10 121 -8 l122
3 47 130 47 130 234 0 233 0 48 -124 c26 -69 51 -128 56 -133 5 -5 63 -7 129
-6 l121 3 -232 580 -232 580 -121 3 c-67 1 -124 -1 -126 -5z m203 -490 c38
-105 70 -195 70 -202 0 -8 -45 -11 -156 -11 -86 0 -154 4 -152 9 2 4 37 101
78 214 44 119 78 200 82 192 4 -7 39 -98 78 -202z"/>
<path d="M4255 3608 c-3 -7 -4 -269 -3 -583 l3 -570 115 0 115 0 3 218 2 217
113 0 c259 1 366 28 447 116 70 76 85 121 85 254 0 106 -2 120 -28 172 -32 65
-90 122 -155 151 -54 23 -225 35 -515 36 -133 1 -179 -2 -182 -11z m560 -214
c61 -32 80 -65 80 -137 0 -48 -5 -69 -22 -93 -40 -55 -81 -68 -240 -72 l-143
-4 0 167 0 168 143 -5 c118 -3 150 -8 182 -24z"/>
<path d="M930 3030 l0 -580 405 0 405 0 0 100 0 100 -290 0 -290 0 0 480 0
480 -115 0 -115 0 0 -580z"/>
</g>
</svg>
