<svg xmlns="http://www.w3.org/2000/svg"  viewBox="0 0 700 700" width="32px" height="32px">
  <path 
    d="M407.33 113.97V609.2c0 2.75-1.9 5-4.22 5H291.55c-2.33 0-4.22-2.25-4.22-5V113.97c0-2.76 1.89-5 4.22-5h111.56c2.32 0 4.22 2.24 4.22 5zM27.1 437.55l60.87-57.64c.95-.9 2.32-1.41 3.76-1.41H258.2c2.76 0 5 1.87 5 4.17v111.65c0 2.3-2.24 4.17-5 4.17H91.54c-1.38 0-2.7-.48-3.65-1.32L27.2 443.15c-1.77-1.58-1.81-3.99-.1-5.61zM667.57 285.62l-60.87 57.64c-.95.9-2.32 1.41-3.76 1.41H436.47c-2.76 0-5-1.87-5-4.17V228.85c0-2.3 2.24-4.17 5-4.17h166.66c1.38 0 2.7.48 3.65 1.32l60.69 54.02c1.77 1.58 1.81 3.99.1 5.61z"
    fill="#ef9234" />
</svg>