<svg xmlns="http://www.w3.org/2000/svg" fill="#ef9234"  xmlns:svg="http://www.w3.org/2000/svg" width="298" height="298" enable-background="new 0 0 298 298" version="1.1"><g class="layer"><title>Layer 1</title><g id="svg_1"><path d="m169.34692,382.94627l0,-107.7738c18.40098,-6.01731 31.65307,-22.53006 31.65307,-41.92199c0,-24.464 -21.08286,-44.36477 -47.00001,-44.36477c-25.91715,0 -47.00001,19.90077 -47.00001,44.36477c0,19.39193 13.25208,35.90468 31.65307,41.92199l0,107.7738l30.69388,0zm-15.34694,-134.30393c-8.99139,0 -16.30612,-6.90642 -16.30612,-15.39186c0,-8.48725 7.31474,-15.39186 16.30612,-15.39186c8.98947,0 16.30612,6.90461 16.30612,15.39186c0,8.48544 -7.31474,15.39186 -16.30612,15.39186z" id="svg_2" transform="matrix(1 0 0 1 0 0)"/><path d="m236.4675,151.78407l-146.76987,-143.80258c3.01675,-6.04977 4.7139,-12.84128 4.7139,-20.01581c0,-20.00834 -13.173,-37.04598 -31.46417,-43.25456l0,-112.44392l-30.51071,0l0,112.44392c-18.29117,6.20858 -31.46417,23.24622 -31.46417,43.25456c0,25.24163 20.95705,45.77499 46.71953,45.77499c7.32448,0 14.25613,-1.66471 20.43264,-4.6186l146.76797,143.80072l21.57489,-21.1387zm-188.7774,-179.69951c8.93582,0 16.20882,7.12408 16.20882,15.88112s-7.27299,15.88112 -16.20882,15.88112c-8.93773,0 -16.20882,-7.12408 -16.20882,-15.88112s7.27299,-15.88112 16.20882,-15.88112z" id="svg_3" transform="rotate(-134 118.72 2.59498)"/></g></g></svg>