<svg xmlns="http://www.w3.org/2000/svg" fill="#ef9234"  xmlns:svg="http://www.w3.org/2000/svg" width="32" height="32"><defs><style>.cls-1{fill:none;}</style></defs><title>insert</title><g class="layer"><title>Layer 1</title><rect class="cls-1" data-name="&lt;Transparent Rectangle&gt;" height="32" id="_Transparent_Rectangle_" width="31.94228" x="0" y="0"/><g id="svg_5" transform="matrix(1 0 0 1 0 0) rotate(180 16 15.5)"><path d="m2,9l9,0l0,-7l-9,0l0,7zm2,-5l5,0l0,3l-5,0l0,-3z" id="svg_1"/><path d="m2,19l9,0l0,-7l-9,0l0,7zm2,-5l5,0l0,3l-5,0l0,-3z" id="svg_2"/><path d="m2,29l9,0l0,-7l-9,0l0,7zm2,-5l5,0l0,3l-5,0l0,-3z" id="svg_3"/><path d="m27,9l-9,0l3.41,-3.59l-1.41,-1.41l-6,6l6,6l1.41,-1.41l-3.41,-3.59l9,0a1,1 0 0 1 1,1l0,12a1,1 0 0 1 -1,1l-12,0l0,2l12,0a3,3 0 0 0 3,-3l0,-12a3,3 0 0 0 -3,-3z" id="svg_4"/></g></g></svg>