<svg xmlns="http://www.w3.org/2000/svg" fill="#ef9234"  xmlns:svg="http://www.w3.org/2000/svg" width="32" height="32"><defs><style>.cls-1 { fill: none; }</style></defs><g class="layer"><title>Layer 1</title><polygon id="svg_1" points="4,20 4,22 8.586000442504883,22 2,28.586000442504883 3.4140000343322754,30 10,23.413999557495117 10,28 12,28 12,20 4,20 "/><path d="m25.7,9.3l-7,-7a0.9087,0.9087 0 0 0 -0.7,-0.3l-10,0a2.0058,2.0058 0 0 0 -2,2l0,12l2,0l0,-12l8,0l0,6a2.0058,2.0058 0 0 0 2,2l6,0l0,6l2,0l0,-8a0.9092,0.9092 0 0 0 -0.3,-0.7zm-7.7,0.7l0,-5.6l5.6,5.6l-5.6,0z" id="svg_4"/><path d="m27.28825,30l-7.5,0a4,4 0 0 1 0,-8l0.0835,0a4.7864,4.7864 0 0 1 3.9165,-2a4.9816,4.9816 0 0 1 4.6543,3.2034a3.4667,3.4667 0 0 1 2.3457,3.2966a3.5041,3.5041 0 0 1 -3.5,3.5zm-7.5,-6a2,2 0 0 0 0,4l7.5,0a1.5017,1.5017 0 0 0 1.5,-1.5a1.4855,1.4855 0 0 0 -1.2778,-1.4739l-0.6612,-0.0991l-0.1616,-0.6487a2.9568,2.9568 0 0 0 -5.4873,-0.7121l-0.2978,0.4338l-1.1143,0z" id="svg_5"/></g></svg>