<svg xmlns="http://www.w3.org/2000/svg" fill="#ef9234"  xmlns:svg="http://www.w3.org/2000/svg" width="433" height="366" enable-background="new 0 0 378.06 378.06" version="1.1" xml:space="preserve"><g class="layer"><title>Layer 1</title><g id="svg_1"><polygon id="svg_4" points="222.36802673339844,225.9189910888672 107.00502014160156,225.9189910888672 107.00502014160156,284.5920104980469 222.36802673339844,284.5920104980469 222.36802673339844,324.656005859375 328.9830322265625,255.2550048828125 222.36802673339844,185.85398864746094 " transform="matrix(1 0 0 1 0 0) rotate(90 217.994 255.255)"/><path d="m216.99403,1.999c-36.158,0 -65.575,29.417 -65.575,65.575s29.417,65.575 65.575,65.575s65.575,-29.417 65.575,-65.575s-29.417,-65.575 -65.575,-65.575z" id="svg_5" transform="rotate(90 216.994 67.574)"/><polygon id="svg_21" points="97.9406967163086,220.90044021606445 179.5146484375,139.32643508911133 138.02651977539062,97.83834457397461 56.45258331298828,179.4123420715332 28.123058319091797,151.08284378051758 1.8088525533676147,275.54492568969727 126.27093505859375,249.23065567016602 " x="1"/><polygon id="svg_22" points="351.2789611816406,220.90043258666992 432.8529052734375,139.3264274597168 391.3647766113281,97.83834457397461 309.79083251953125,179.41233444213867 281.4613037109375,151.08283615112305 255.1470947265625,275.5449333190918 379.60919189453125,249.23066329956055 " transform="rotate(-90 344 186.692)" x="1"/></g></g></svg>