<svg xmlns="http://www.w3.org/2000/svg" fill="#ef9234"  xmlns:svg="http://www.w3.org/2000/svg" width="32" height="32"><defs><style>.cls-1 { fill: none; }</style></defs><g class="layer"><title>Layer 1</title><polygon id="svg_2" points="32.12467002868652,6.015733242034912 32.12467002868652,4.021692276000977 27.047643661499023,4.021692276000977 27.047643661499023,-1.0553351640701294 25.05360221862793,-1.0553350448608398 25.05360221862793,4.021692276000977 19.97657585144043,4.021692276000977 19.97657585144043,6.015733242034912 25.05360221862793,6.015733242034912 25.05360221862793,11.092759132385254 27.047643661499023,11.092759132385254 27.047643661499023,6.015733242034912 32.12467002868652,6.015733242034912 " transform="rotate(-45 26.0506 5.01871)"/><path d="m3.94496,12.89928l0,-6l14,0l0,-2l-14,0a2.0023,2.0023 0 0 0 -2,2l0,6a2.0023,2.0023 0 0 0 2,2l22,0l0,-2l-22,0z" id="svg_3" transform="matrix(1 0 0 1 0 0)"/><polygon id="svg_5" points="31.050630569458008,18.505210876464844 29.6406307220459,17.095211029052734 26.05063247680664,20.685209274291992 22.46063232421875,17.0952091217041 21.05063247680664,18.50520896911621 24.64063262939453,22.0952091217041 21.05063247680664,25.685209274291992 22.46063232421875,27.0952091217041 26.05063247680664,23.50520896911621 29.64063262939453,27.0952091217041 31.05063247680664,25.685209274291992 27.46063232421875,22.0952091217041 31.050630569458008,18.505210876464844 "/><path d="m3.94496,30.0033l0,-6l14,0l0,-2l-14,0a2.0023,2.0023 0 0 0 -2,2l0,6a2.0023,2.0023 0 0 0 2,2l22,0l0,-2l-22,0z" id="svg_4" transform="matrix(1 0 0 1 0 0)"/></g></svg>