<svg xmlns="http://www.w3.org/2000/svg" fill="#ef9234"  xmlns:xlink="http://www.w3.org/1999/xlink" version="1.1" id="Layer_1" x="0px" y="0px" viewBox="0 0 512 512" style="enable-background:new 0 0 512 512;" xml:space="preserve">
<g>
	<g>
		<path d="M240.141,302.612c-21.391-27.337-42.646-46.326-43.541-47.121l-14.787-13.143l-14.787,13.143    c-0.895,0.794-22.15,19.784-43.544,47.121c-30.212,38.607-45.534,74.109-45.534,105.525c0,57.27,46.593,103.863,103.863,103.863    s103.863-46.593,103.863-103.863C285.674,376.721,270.355,341.218,240.141,302.612z M181.814,467.487    c-32.726,0-59.35-26.625-59.35-59.35c0-35.334,35.006-79.57,59.3-104.923c6.721,7.012,15.023,16.22,23.328,26.831    c23.599,30.154,36.075,57.16,36.075,78.092C241.165,440.863,214.539,467.487,181.814,467.487z"/>
	</g>
</g>
<g>
	<g>
		<path d="M367.232,107.114l-14.787-13.143l-14.787,13.143c-6.839,6.079-66.82,60.972-66.82,115.552    c0,44.998,36.609,81.607,81.607,81.607s81.607-36.609,81.607-81.607C434.054,168.086,374.073,113.193,367.232,107.114z     M352.447,259.761c-20.454,0-37.094-16.64-37.094-37.094c0-20.313,19.146-47.842,37.093-67.527    c17.955,19.691,37.096,47.215,37.096,67.527C389.541,243.122,372.9,259.761,352.447,259.761z"/>
	</g>
</g>
<g>
	<g>
		<path d="M196.601,13.143L181.814,0l-14.787,13.143c-5.321,4.73-51.982,47.458-51.982,90.823c0,36.818,29.951,66.769,66.769,66.769    c36.817,0,66.769-29.953,66.769-66.769C248.583,60.601,201.922,17.873,196.601,13.143z M181.814,126.222    c-12.272,0-22.256-9.984-22.256-22.256c0-11.772,10.585-28.484,22.204-42.173c10.983,12.961,22.308,29.88,22.308,42.173    C204.071,116.239,194.086,126.222,181.814,126.222z"/>
	</g>
</g>
</svg>