<svg xmlns="http://www.w3.org/2000/svg" fill="#ef9234" width="800" height="800" viewBox="0 0 32 32" class="icon">
  <path d="m12.103 11.923 2.58 2.59H2.513v2h12.17l-2.58 2.59 1.41 1.41 5-5-5-5z"></path>
  <path d="M9.513 23.013v-.5h2v.5a4.504 4.504 0 0 0 9 .36v-.86l.82-.1a7 7 0 0 0 0-13.88l-.82-.02v-.86a4.504 4.504 0 0 0-9 .36v.5h-2v-.5a6.5 6.5 0 0 1 12.86-1.3 9 9 0 0 1 0 17.6 6.5 6.5 0 0 1-12.86-1.3z"></path>
  <path d="M0 0h32v32H0z" data-name="&lt;Transparent Rectangle&gt;" style="fill: none;"></path>
</svg>