<svg xmlns="http://www.w3.org/2000/svg" viewBox="0 0 30.803 44.324" class="icon" width="32px" height="32px"><defs><filter id="a" width="1.068" height="1.046" x="-0.017" y="-0.011"><feFlood flood-color="#000" flood-opacity="0.498" result="flood"></feFlood><feComposite in="flood" in2="SourceGraphic" operator="in" result="composite1"></feComposite><feGaussianBlur in="composite1" result="blur" stdDeviation="0.2"></feGaussianBlur><feOffset dx="1" dy="1" result="offset"></feOffset><feComposite in="SourceGraphic" in2="offset" result="composite2"></feComposite></filter></defs><g style="display: inline;"><g transform="translate(-39.667 -110.707)" style="filter: url(&quot;#a&quot;);"><path d="m64.697 153.552-8.352-.05-4.133-7.257 4.218-7.208 8.352.049 4.134 7.257z" style="fill: rgb(255, 255, 255); stroke-width: 0.394699; stroke-miterlimit: 4; stroke-dasharray: none;"></path><path d="m52.632 146.553-8.352-.049-4.133-7.257 4.218-7.209 8.352.05 4.134 7.257z" style="display: inline; fill: rgb(255, 255, 255); stroke-width: 0.394699; stroke-miterlimit: 4; stroke-dasharray: none;"></path><path d="m64.771 139.589-8.352-.05-4.133-7.257 4.218-7.208 8.352.05 4.134 7.257z" style="display: inline; fill: rgb(255, 255, 255); stroke-width: 0.394699; stroke-miterlimit: 4; stroke-dasharray: none;"></path><path d="m64.765 125.702-8.351-.049-4.134-7.257 4.219-7.209 8.352.05 4.133 7.257z" style="display: inline; fill: rgb(255, 255, 255); stroke-width: 0.394699; stroke-miterlimit: 4; stroke-dasharray: none;"></path><path d="m52.696 132.676-8.352-.049-4.133-7.257 4.218-7.209 8.352.05 4.133 7.257z" style="display: inline; fill: rgb(255, 255, 255); stroke-width: 0.394699; stroke-miterlimit: 4; stroke-dasharray: none;"></path></g></g><g transform="translate(-39.667 -110.707)" style="display: inline;"><path d="m1849.139 640.353-96.824 20.558-66.216-73.574 30.608-94.13 96.824-20.559 66.216 73.573z" transform="matrix(.07206 .01553 -.01553 .07206 -59.031 63.796)" style="opacity: 1; fill: rgb(193, 39, 102); fill-opacity: 1; stroke: none; stroke-width: 3; stroke-miterlimit: 4; stroke-dasharray: none; stroke-opacity: 1;"></path><path d="m1849.139 640.353-96.824 20.558-66.216-73.574 30.608-94.13 96.824-20.559 66.216 73.573z" transform="matrix(.07206 .01553 -.01553 .07206 -71.17 70.76)" style="opacity: 1; fill: rgb(62, 72, 159); fill-opacity: 1; stroke: none; stroke-width: 15; stroke-miterlimit: 4; stroke-dasharray: none; stroke-opacity: 1;"></path><path d="m1849.139 640.353-96.824 20.558-66.216-73.574 30.608-94.13 96.824-20.559 66.216 73.573z" transform="matrix(.07206 .01553 -.01553 .07206 -59.106 77.758)" style="opacity: 1; fill: rgb(113, 64, 153); fill-opacity: 1; stroke: none; stroke-width: 3; stroke-miterlimit: 4; stroke-dasharray: none; stroke-opacity: 1;"></path><path d="m1849.139 640.353-96.824 20.558-66.216-73.574 30.608-94.13 96.824-20.559 66.216 73.573z" transform="matrix(.07206 .01553 -.01553 .07206 -71.106 56.883)" style="opacity: 1; fill: rgb(120, 147, 44); fill-opacity: 1; stroke: none; stroke-width: 3; stroke-miterlimit: 4; stroke-dasharray: none; stroke-opacity: 1;"></path><path d="m1849.139 640.353-96.824 20.558-66.216-73.574 30.608-94.13 96.824-20.559 66.216 73.573z" transform="matrix(.07206 .01553 -.01553 .07206 -59.037 49.91)" style="opacity: 1; fill: rgb(207, 36, 42); fill-opacity: 1; stroke: none; stroke-width: 3; stroke-miterlimit: 4; stroke-dasharray: none; stroke-opacity: 1;"></path><circle cx="60.564" cy="146.294" r="1.6" style="opacity: 1; fill: rgb(255, 255, 255); fill-opacity: 1; stroke: none; stroke-width: 0.320071; stroke-miterlimit: 4; stroke-dasharray: none; stroke-opacity: 1;"></circle><path d="m61.748 117.71-14.267 8.174M48.514 124.197l.048 16.442M47.525 138.715l14.136 8.397M60.59 117.133l.048 16.442" style="fill: none; fill-rule: evenodd; stroke: rgb(255, 255, 255); stroke-width: 0.523753; stroke-linecap: butt; stroke-linejoin: miter; stroke-miterlimit: 4; stroke-dasharray: none; stroke-opacity: 1;"></path><path d="m60.657 131.093.048 16.442" style="fill: none; fill-rule: evenodd; stroke: rgb(255, 255, 255); stroke-width: 0.5238; stroke-linecap: butt; stroke-linejoin: miter; stroke-miterlimit: 4; stroke-dasharray: none; stroke-opacity: 1;"></path><path d="m61.766 131.708-14.267 8.174M47.564 124.84l14.136 8.398" style="fill: none; fill-rule: evenodd; stroke: rgb(255, 255, 255); stroke-width: 0.523753; stroke-linecap: butt; stroke-linejoin: miter; stroke-miterlimit: 4; stroke-dasharray: none; stroke-opacity: 1;"></path><circle cx="48.334" cy="139.242" r="1.6" style="opacity: 1; fill: rgb(255, 255, 255); fill-opacity: 1; stroke: none; stroke-width: 0.320071; stroke-miterlimit: 4; stroke-dasharray: none; stroke-opacity: 1;"></circle><circle cx="60.901" cy="132.486" r="1.6" style="opacity: 1; fill: rgb(255, 255, 255); fill-opacity: 1; stroke: none; stroke-width: 0.320071; stroke-miterlimit: 4; stroke-dasharray: none; stroke-opacity: 1;"></circle><circle cx="48.563" cy="125.419" r="1.6" style="opacity: 1; fill: rgb(255, 255, 255); fill-opacity: 1; stroke: none; stroke-width: 0.320071; stroke-miterlimit: 4; stroke-dasharray: none; stroke-opacity: 1;"></circle><circle cx="60.632" cy="118.445" r="1.6" style="opacity: 1; fill: rgb(255, 255, 255); fill-opacity: 1; stroke: none; stroke-width: 0.320071; stroke-miterlimit: 4; stroke-dasharray: none; stroke-opacity: 1;"></circle></g></svg>