<svg xmlns="http://www.w3.org/2000/svg" xml:space="preserve" viewBox="0 0 512 512" class="icon" width="32px" height="32px"><path d="M445.66 49.341H340.206L294.008 3.143c-4.192-4.191-10.99-4.191-15.183 0l-49.341 49.342c-4.192 4.192-4.192 10.99 0 15.183l46.198 46.198v38.494h-80.516c-5.929 0-10.736 4.806-10.736 10.735v21.471h-42.942v-21.471c0-5.929-4.806-10.735-10.736-10.735H66.34c-5.929 0-10.735 4.806-10.735 10.735v64.413c0 5.929 4.806 10.735 10.735 10.735h20.755v93.798c0 5.929 4.806 10.736 10.735 10.736h95.437l-10.346 10.346c-4.192 4.192-4.193 10.99 0 15.182a10.7 10.7 0 0 0 7.591 3.144c2.747 0 5.495-1.049 7.591-3.144l15.061-15.061c3.994 8.83 10.521 16.859 19.311 23.54 11.932 9.068 26.987 14.783 43.205 16.539v32.792h-42.942c-5.929 0-10.735 4.806-10.735 10.736v64.413c0 5.929 4.806 10.735 10.735 10.735h107.355c5.929 0 10.735-4.806 10.735-10.735v-64.413c0-5.929-4.806-10.736-10.735-10.736h-42.942v-32.792c16.218-1.756 31.272-7.471 43.205-16.539 8.801-6.689 15.332-14.73 19.325-23.572l15.092 15.092c2.097 2.097 4.844 3.144 7.591 3.144s5.495-1.049 7.591-3.144c4.192-4.192 4.192-10.99 0-15.182l-10.346-10.346h66.05c5.929 0 10.736-4.806 10.736-10.736V60.077c.001-5.929-4.806-10.736-10.735-10.736zM252.257 60.078l34.16-34.16 34.16 34.16-34.16 34.16-34.16-34.16zm-46.356 113.754h161.032v42.942H205.901v-42.942zM77.075 216.774v-42.942h42.942v42.942H77.075zm136.174 94.148-15.143-15.143c-4.192-4.192-10.99-4.192-15.183 0-4.192 4.192-4.192 10.99 0 15.183l10.346 10.346h-84.702v-83.063h22.187c5.929 0 10.735-4.806 10.735-10.735v-21.471h42.942v21.471c0 5.929 4.806 10.735 10.735 10.735h80.516v32.792c-16.218 1.756-31.272 7.471-43.205 16.539-8.727 6.632-15.227 14.592-19.228 23.346zm116.11 136.665v42.942h-85.884v-42.942h85.884zm-42.942-75.148c-31.078 0-56.361-18.059-56.361-40.258s25.283-40.258 56.361-40.258c31.078 0 56.361 18.059 56.361 40.258s-25.282 40.258-56.361 40.258zm93.193-51.131 10.347-10.346c4.192-4.192 4.192-10.99 0-15.183-4.192-4.191-10.99-4.191-15.183 0l-15.175 15.175c-4-8.766-10.505-16.738-19.242-23.378-11.932-9.068-26.987-14.783-43.205-16.539v-32.792h80.516c5.929 0 10.735-4.806 10.735-10.735v-64.413c0-5.929-4.806-10.735-10.735-10.735h-80.516v-38.494l43.054-43.054h94.718v250.494H379.61z"></path></svg>