<svg width="24" height="24" viewBox="0 0 24 24" fill="none" xmlns="http://www.w3.org/2000/svg">
<g clip-path="url(#clip0_103_6240)">
<path d="M2.692 17V15.752H4.924C5.58 15.752 6.14 15.62 6.604 15.356C7.068 15.092 7.42 14.724 7.66 14.252C7.908 13.78 8.032 13.24 8.032 12.632C8.032 12.032 7.908 11.504 7.66 11.048C7.42 10.592 7.068 10.24 6.604 9.992C6.148 9.736 5.588 9.608 4.924 9.608H2.716V8.36H4.924C5.868 8.36 6.692 8.536 7.396 8.888C8.1 9.24 8.644 9.74 9.028 10.388C9.42 11.028 9.616 11.784 9.616 12.656C9.616 13.528 9.42 14.292 9.028 14.948C8.636 15.596 8.088 16.1 7.384 16.46C6.688 16.82 5.872 17 4.936 17H2.692ZM1.744 17V8.36H3.304V17H1.744ZM11.1401 17.12C10.8361 17.12 10.5441 17.096 10.2641 17.048C9.98409 17.008 9.78009 16.956 9.65209 16.892V15.644C9.81209 15.708 10.0041 15.764 10.2281 15.812C10.4521 15.852 10.6801 15.872 10.9121 15.872C11.4081 15.872 11.7721 15.78 12.0041 15.596C12.2361 15.412 12.3521 15.1 12.3521 14.66V8.36H13.9121V14.732C13.9121 15.532 13.6761 16.132 13.2041 16.532C12.7321 16.924 12.0441 17.12 11.1401 17.12ZM15.3612 17V8.36H16.9212V17H15.3612ZM16.1052 17V15.764H21.1692V17H16.1052Z" fill="black"/>
</g>
<defs>
<clipPath id="clip0_103_6240">
<rect width="24" height="24" fill="white"/>
</clipPath>
</defs>
</svg>
