<svg xmlns="http://www.w3.org/2000/svg" fill="#ef9234"  xmlns:svg="http://www.w3.org/2000/svg" width="32" height="32"><defs><style>.cls-1 { fill: none; }</style></defs><g class="layer"><title>Layer 1</title><path d="m16,28l-8,0l0,-24l8,0l0,6a2.0058,2.0058 0 0 0 2,2l6,0l0,4l2,0l0,-6a0.9092,0.9092 0 0 0 -0.3,-0.7l-7,-7a0.9087,0.9087 0 0 0 -0.7,-0.3l-10,0a2.0058,2.0058 0 0 0 -2,2l0,24a2.0058,2.0058 0 0 0 2,2l8,0l0,-2zm2,-23.6l5.6,5.6l-5.6,0l0,-5.6z" id="svg_2"/><path xmlns="http://www.w3.org/2000/svg" d="m18.93145,19l0,2.4131a6.996,6.996 0 1 1 6,10.5869l0,-2a5,5 0 1 0 -4.5762,-7l2.5762,0l0,2l-6,0l0,-6l2,0z" id="svg_1"/></g></svg>