<svg xmlns="http://www.w3.org/2000/svg" fill="#ef9234"  viewBox="0 0 700 700" class="icon" width="32px" height="32px"><path d="M496.2 83.65l-130.22 101.1c-.19.14-.39.29-.59.42a28.39 28.39 0 01-30.77 0c-.21-.13-.4-.28-.59-.42L203.8 83.65h292.4z"></path><path d="M516.1 92.17v202.1c0 4.12-3.34 7.46-7.45 7.46H191.36c-4.11 0-7.46-3.34-7.46-7.46V92.16l138.52 107.53c.68.53 1.31.98 1.94 1.38 7.79 5.04 16.72 7.55 25.66 7.55s17.86-2.52 25.66-7.55c.62-.4 1.25-.85 1.94-1.38l138.5-107.52zM524.34 397.22l-12.91 30.22-.03.06v.03c-.11.21-.21.43-.32.64s-.23.42-.36.61c-.08.14-.17.27-.27.4-.08.11-.16.21-.24.31-.1.13-.21.25-.31.36-.08.09-.16.18-.24.25-.05.06-.1.11-.16.15l-.27.25c-.17.15-.33.29-.51.42-.15.13-.3.23-.47.33-.19.13-.39.25-.59.36s-.42.22-.63.31c-.22.1-.44.18-.66.26-.25.09-.49.17-.75.23-.2.05-.4.09-.61.13-.72.12-1.46.15-2.2.08-.19-.01-.36-.04-.55-.07-.04 0-.08-.02-.11-.02l-32.43-5.52a8.494 8.494 0 01-6.95-9.81 8.5 8.5 0 019.81-6.95l15.17 2.58-34.61-63.46a8.494 8.494 0 013.39-11.53c4.12-2.25 9.28-.73 11.53 3.39l34.61 63.46 6.04-14.15a8.508 8.508 0 0111.16-4.48c4.31 1.85 6.32 6.84 4.48 11.16zM175.66 399.19l12.91 30.22.03.06v.03c.11.21.21.43.32.64s.23.42.36.61c.08.14.17.27.27.4.08.11.16.21.24.31.1.13.21.25.31.36.08.09.16.18.24.25.05.06.1.11.16.15l.27.25c.17.15.33.29.51.42.15.13.3.23.47.33.19.13.39.25.59.36s.42.22.63.31c.22.1.44.18.66.26.25.09.49.17.75.23.2.05.4.09.61.13.72.12 1.46.15 2.2.08.19-.01.36-.04.55-.07.04 0 .08-.02.11-.02l32.43-5.52a8.494 8.494 0 006.95-9.81 8.5 8.5 0 00-9.81-6.95l-15.17 2.58 34.61-63.46c2.25-4.13.73-9.28-3.39-11.53s-9.28-.73-11.53 3.39l-34.61 63.46-6.04-14.15a8.508 8.508 0 00-11.16-4.48c-4.31 1.85-6.32 6.84-4.48 11.16zM260.43 467.71l-76.07 57.24c-5.52 4.16-13.24 4.16-18.76 0l-76.08-57.24h170.91z"></path><path d="M277.36 476.26v110.05c0 5.52-4.48 10-10 10H82.59c-5.52 0-10-4.48-10-10V476.25l82.79 62.29c5.77 4.34 12.69 6.51 19.6 6.51s13.83-2.17 19.6-6.51l82.78-62.28z"></path><g><path d="M610.48 467.71l-76.07 57.24c-5.52 4.16-13.24 4.16-18.76 0l-76.08-57.24h170.91z"></path><path d="M627.41 476.26v110.05c0 5.52-4.48 10-10 10H432.64c-5.52 0-10-4.48-10-10V476.25l82.79 62.29c5.77 4.34 12.69 6.51 19.6 6.51s13.83-2.17 19.6-6.51l82.78-62.28z"></path></g></svg>